<svg width="40" height="40" viewBox="0 0 40 40" fill="none" xmlns="http://www.w3.org/2000/svg">
<path d="M39.611 16.083H38V16H20V24H31.303C29.654 28.657 25.223 32 20 32C13.373 32 8 26.627 8 20C8 13.373 13.373 8 20 8C23.059 8 25.842 9.154 27.961 11.039L33.618 5.382C30.046 2.053 25.268 0 20 0C8.955 0 0 8.955 0 20C0 31.045 8.955 40 20 40C31.045 40 40 31.045 40 20C40 18.659 39.862 17.35 39.611 16.083Z" fill="#FFC107"/>
<path d="M2.6084 11.0887L9.17779 16.087C10.9554 11.5212 15.2603 8.29759 20.2981 8.29759C23.3563 8.29759 26.1386 9.49452 28.2571 11.4496L33.9127 5.5822C30.3416 2.12937 25.5648 0 20.2981 0C12.618 0 5.95758 4.49833 2.6084 11.0887Z" fill="#FF3D00"/>
<path d="M20.0304 40C25.2113 40 29.9189 38.0056 33.4782 34.7621L27.2703 29.4778C25.1888 31.0702 22.6454 31.9314 20.0304 31.9293C14.8133 31.9293 10.3835 28.583 8.71471 23.9131L2.17383 28.9825C5.49341 35.5168 12.2349 40 20.0304 40Z" fill="#4CAF50"/>
<path d="M39.611 16.1693H38V16.0869H20V24.0306H31.303C30.5142 26.2314 29.0934 28.1545 27.216 29.5623L27.219 29.5604L33.409 34.7615C32.971 35.1567 40 29.9883 40 20.0587C40 18.7272 39.862 17.4274 39.611 16.1693Z" fill="#1976D2"/>
</svg>
