<svg width="42" height="50" viewBox="0 0 42 50" fill="none" xmlns="http://www.w3.org/2000/svg">
<path d="M35.1142 26.4233C35.0901 22.3249 36.9468 19.236 40.6961 16.9585C38.5991 13.9538 35.4266 12.3012 31.2446 11.9827C27.285 11.6702 22.9528 14.2903 21.3665 14.2903C19.6901 14.2903 15.8567 12.0909 12.8403 12.0909C6.61545 12.187 0 17.0546 0 26.9581C0 29.8847 0.534764 32.9074 1.60429 36.0202C3.03433 40.1186 8.1897 50.1603 13.5674 49.9981C16.3794 49.932 18.3682 48.0029 22.0275 48.0029C25.5785 48.0029 27.4172 49.9981 30.5536 49.9981C35.9794 49.9199 40.6421 40.7917 42 36.6813C34.7236 33.2499 35.1142 26.6336 35.1142 26.4233ZM28.7991 8.09464C31.8455 4.47699 31.5691 1.18385 31.479 0C28.7871 0.156244 25.6747 1.83286 23.9021 3.89408C21.9494 6.10553 20.8017 8.8398 21.0481 11.9226C23.9562 12.145 26.612 10.6486 28.7991 8.09464Z" fill="black"/>
</svg>
