<svg width="141" height="31" viewBox="0 0 141 31" fill="none" xmlns="http://www.w3.org/2000/svg">
<path d="M141 13.6174V11.1377H137.921V7.28297L137.817 7.31492L134.925 8.19969L134.868 8.21705V11.138H130.303V9.51115C130.303 8.75364 130.472 8.17353 130.806 7.78678C131.138 7.40472 131.612 7.21052 132.217 7.21052C132.652 7.21052 133.102 7.31299 133.555 7.51518L133.668 7.56559V4.95424L133.615 4.93469C133.192 4.78263 132.617 4.70605 131.905 4.70605C131.007 4.70605 130.191 4.90163 129.479 5.28893C128.767 5.67677 128.206 6.23044 127.814 6.93479C127.423 7.63803 127.225 8.45036 127.225 9.34918V11.138H125.08V13.6177H127.225V24.0639H130.303V13.6174H134.868V20.256C134.868 22.9902 136.158 24.376 138.701 24.376C139.119 24.376 139.559 24.3267 140.008 24.2308C140.465 24.1325 140.776 24.0341 140.96 23.9289L141 23.9052V21.4024L140.875 21.4851C140.708 21.5969 140.5 21.6875 140.256 21.755C140.011 21.8239 139.806 21.8586 139.648 21.8586C139.052 21.8586 138.611 21.698 138.337 21.3812C138.061 21.0617 137.921 20.5025 137.921 19.7202V13.6174H141ZM118.206 21.8591C117.089 21.8591 116.209 21.4884 115.588 20.7587C114.963 20.0251 114.647 18.9795 114.647 17.6509C114.647 16.2805 114.963 15.2076 115.588 14.4611C116.209 13.7196 117.081 13.3433 118.181 13.3433C119.249 13.3433 120.099 13.7028 120.707 14.4121C121.319 15.1255 121.629 16.1896 121.629 17.5763C121.629 18.9798 121.337 20.0582 120.761 20.7793C120.19 21.4952 119.33 21.8591 118.206 21.8591ZM118.344 10.8265C116.212 10.8265 114.519 11.4509 113.312 12.6828C112.106 13.9149 111.494 15.6194 111.494 17.7504C111.494 19.7742 112.091 21.4021 113.269 22.588C114.446 23.7747 116.049 24.3757 118.032 24.3757C120.098 24.3757 121.757 23.7422 122.964 22.4935C124.17 21.2457 124.782 19.5571 124.782 17.476C124.782 15.4206 124.208 13.7805 123.076 12.6023C121.944 11.4239 120.351 10.8265 118.344 10.8265ZM106.531 10.8265C105.081 10.8265 103.882 11.1972 102.966 11.9283C102.044 12.6638 101.576 13.6287 101.576 14.7961C101.576 15.4029 101.678 15.942 101.876 16.3993C102.076 16.8579 102.385 17.2617 102.796 17.6008C103.204 17.9369 103.833 18.2892 104.667 18.6476C105.368 18.936 105.891 19.18 106.223 19.3723C106.547 19.5607 106.778 19.7502 106.908 19.9348C107.034 20.1152 107.099 20.3623 107.099 20.6675C107.099 21.536 106.448 21.9583 105.11 21.9583C104.614 21.9583 104.048 21.855 103.428 21.6506C102.812 21.4492 102.231 21.1544 101.704 20.7766L101.576 20.6851V23.6485L101.623 23.6705C102.059 23.8716 102.608 24.0408 103.255 24.1744C103.901 24.308 104.488 24.376 104.998 24.376C106.571 24.376 107.838 24.0033 108.763 23.2675C109.693 22.5271 110.165 21.5396 110.165 20.3314C110.165 19.4602 109.911 18.7131 109.41 18.1104C108.914 17.5127 108.051 16.964 106.848 16.4789C105.89 16.0943 105.276 15.7751 105.023 15.5299C104.779 15.293 104.655 14.9583 104.655 14.5344C104.655 14.1584 104.808 13.8573 105.122 13.6133C105.439 13.3681 105.879 13.2433 106.432 13.2433C106.945 13.2433 107.469 13.3243 107.991 13.483C108.513 13.6419 108.971 13.8546 109.353 14.1146L109.479 14.2006V11.3895L109.43 11.3686C109.078 11.2173 108.612 11.0882 108.048 10.9829C107.485 10.8791 106.975 10.8265 106.531 10.8265ZM93.5518 21.8589C92.4351 21.8589 91.5539 21.4884 90.9333 20.7587C90.3086 20.0251 89.9926 18.9798 89.9926 17.6509C89.9926 16.2805 90.3088 15.2076 90.9338 14.4611C91.5545 13.7196 92.4268 13.3433 93.5273 13.3433C94.5941 13.3433 95.4437 13.7028 96.0524 14.4121C96.6639 15.1255 96.9744 16.1896 96.9744 17.5763C96.9744 18.9798 96.6824 20.0582 96.1067 20.7793C95.5354 21.4952 94.6762 21.8591 93.5518 21.8591V21.8589ZM93.6895 10.8265C91.5575 10.8265 89.8642 11.4509 88.6577 12.6828C87.4515 13.9149 86.8397 15.6194 86.8397 17.7504C86.8397 19.775 87.4369 21.4021 88.6145 22.588C89.7921 23.7747 91.3947 24.3757 93.3774 24.3757C95.4434 24.3757 97.103 23.7422 98.3095 22.4935C99.5158 21.2457 100.128 19.5571 100.128 17.476C100.128 15.4206 99.5535 13.7805 98.4216 12.6023C97.2889 11.4239 95.6968 10.8265 93.6893 10.8265H93.6895ZM82.1671 13.3764V11.1377H79.1263V24.0639H82.1668V17.4518C82.1668 16.3274 82.4219 15.4038 82.9249 14.706C83.4215 14.0166 84.0832 13.6675 84.8914 13.6675C85.1652 13.6675 85.4726 13.7124 85.8056 13.802C86.1351 13.8907 86.3739 13.9871 86.5147 14.0884L86.6422 14.181V11.1157L86.5932 11.0945C86.3097 10.9741 85.9095 10.9135 85.4024 10.9135C84.6385 10.9135 83.9546 11.1589 83.3689 11.6424C82.8549 12.0671 82.4833 12.6497 82.1991 13.3764H82.1668H82.1671ZM73.6813 10.8265C72.2864 10.8265 71.0422 11.1256 69.9836 11.7151C68.9231 12.306 68.103 13.15 67.5452 14.2229C66.9896 15.2933 66.7078 16.5433 66.7078 17.9377C66.7078 19.1588 66.9811 20.2796 67.5215 21.2674C68.0623 22.2569 68.828 23.0309 69.7968 23.5675C70.7645 24.1038 71.8826 24.376 73.1208 24.376C74.5658 24.376 75.7996 24.0868 76.7888 23.5174L76.8287 23.4942V20.7085L76.7009 20.8019C76.2458 21.1318 75.7446 21.3928 75.2134 21.5765C74.676 21.7638 74.186 21.8589 73.7563 21.8589C72.5635 21.8589 71.6058 21.4853 70.9102 20.7496C70.2133 20.0125 69.8602 18.9778 69.8602 17.6755C69.8602 16.3651 70.2287 15.3038 70.9548 14.5204C71.6785 13.7397 72.6379 13.3436 73.8067 13.3436C74.806 13.3436 75.7798 13.6819 76.7012 14.3504L76.8287 14.443V11.5079L76.7874 11.4845C76.4409 11.2906 75.9679 11.1303 75.3806 11.0088C74.7964 10.8876 74.2245 10.8265 73.6811 10.8265H73.6813ZM64.6132 11.1377H61.5727V24.0639H64.6135V11.138L64.6132 11.1377ZM63.1241 5.63132C62.6239 5.63132 62.1876 5.80155 61.8286 6.13927C61.4686 6.47808 61.286 6.90421 61.286 7.4072C61.286 7.9022 61.4664 8.32062 61.8231 8.65007C62.1774 8.97869 62.6151 9.14534 63.1241 9.14534C63.6332 9.14534 64.0725 8.97869 64.4312 8.65062C64.792 8.32062 64.9752 7.9022 64.9752 7.4072C64.9752 6.92157 64.797 6.49956 64.446 6.15276C64.0954 5.80679 63.6508 5.63132 63.1241 5.63132ZM55.538 10.1841V24.0639H58.6408V6.02715H54.3464L48.8873 19.4241L43.5897 6.02715H39.1201V24.0639H42.0361V10.1827H42.1364L47.7304 24.0636H49.931L55.4374 10.1841H55.5377H55.538Z" fill="#706D6E"/>
<path d="M14.3037 14.3037H0V0H14.3037V14.3037Z" fill="#F1511B"/>
<path d="M30.0964 14.3037H15.793V0H30.0964V14.3037Z" fill="#80CC28"/>
<path d="M14.3032 30.1023H0V15.7988H14.3032V30.1023Z" fill="#00ADEF"/>
<path d="M30.0964 30.1023H15.793V15.7988H30.0964V30.1023Z" fill="#FBBC09"/>
</svg>
